<svg width="25" height="24" viewBox="0 0 25 24" fill="none" xmlns="http://www.w3.org/2000/svg">
<path d="M12.25 13C12.8023 13 13.25 12.5523 13.25 12C13.25 11.4477 12.8023 11 12.25 11C11.6977 11 11.25 11.4477 11.25 12C11.25 12.5523 11.6977 13 12.25 13Z" stroke="black" stroke-width="2" stroke-linecap="round" stroke-linejoin="round"/>
<path d="M19.25 13C19.8023 13 20.25 12.5523 20.25 12C20.25 11.4477 19.8023 11 19.25 11C18.6977 11 18.25 11.4477 18.25 12C18.25 12.5523 18.6977 13 19.25 13Z" stroke="black" stroke-width="2" stroke-linecap="round" stroke-linejoin="round"/>
<path d="M5.25 13C5.80228 13 6.25 12.5523 6.25 12C6.25 11.4477 5.80228 11 5.25 11C4.69772 11 4.25 11.4477 4.25 12C4.25 12.5523 4.69772 13 5.25 13Z" stroke="black" stroke-width="2" stroke-linecap="round" stroke-linejoin="round"/>
</svg>
