<svg width="13" height="12" viewBox="0 0 13 12" fill="none" xmlns="http://www.w3.org/2000/svg">
<path d="M6.16393 10H10.6639M1.66394 9.99999H2.50121C2.7458 9.99999 2.8681 9.99999 2.98319 9.97236C3.08522 9.94786 3.18277 9.90746 3.27224 9.85263C3.37316 9.79079 3.45963 9.70431 3.63258 9.53136L9.91395 3.24999C10.3282 2.83578 10.3282 2.1642 9.91395 1.74999C9.49974 1.33578 8.82817 1.33578 8.41395 1.74999L2.13257 8.03136C1.95962 8.20431 1.87314 8.29079 1.8113 8.39171C1.75647 8.48118 1.71607 8.57872 1.69157 8.68076C1.66394 8.79585 1.66394 8.91814 1.66394 9.16273V9.99999Z" stroke="white" stroke-linecap="round" stroke-linejoin="round"/>
</svg>
