<svg width="13" height="12" viewBox="0 0 13 12" fill="none" xmlns="http://www.w3.org/2000/svg">
<g clip-path="url(#clip0_8_14)">
<path d="M1.374 6.35659C1.30591 6.24877 1.27186 6.19486 1.2528 6.11171C1.23849 6.04925 1.23849 5.95075 1.2528 5.88829C1.27186 5.80514 1.30591 5.75123 1.374 5.64341C1.9367 4.75242 3.61164 2.5 6.16414 2.5C8.71664 2.5 10.3916 4.75242 10.9543 5.64341C11.0224 5.75123 11.0564 5.80514 11.0755 5.88829C11.0898 5.95075 11.0898 6.04925 11.0755 6.11171C11.0564 6.19486 11.0224 6.24877 10.9543 6.35659C10.3916 7.24758 8.71664 9.5 6.16414 9.5C3.61164 9.5 1.93671 7.24758 1.374 6.35659Z" stroke="white" stroke-linecap="round" stroke-linejoin="round"/>
<path d="M6.16414 7.5C6.99257 7.5 7.66414 6.82843 7.66414 6C7.66414 5.17157 6.99257 4.5 6.16414 4.5C5.33571 4.5 4.66414 5.17157 4.66414 6C4.66414 6.82843 5.33571 7.5 6.16414 7.5Z" stroke="white" stroke-linecap="round" stroke-linejoin="round"/>
</g>
<defs>
<clipPath id="clip0_8_14">
<rect width="12" height="12" fill="white" transform="translate(0.16394)"/>
</clipPath>
</defs>
</svg>
