<svg width="12" height="12" viewBox="0 0 12 12" fill="none" xmlns="http://www.w3.org/2000/svg">
<path d="M5.37147 2.54616C5.57468 2.51612 5.7843 2.5 6.00021 2.5C8.55271 2.5 10.2276 4.75242 10.7903 5.64341C10.8585 5.75125 10.8925 5.80517 10.9116 5.88834C10.9259 5.9508 10.9259 6.04933 10.9115 6.11179C10.8925 6.19495 10.8582 6.24923 10.7896 6.35778C10.6397 6.59507 10.4111 6.92855 10.1082 7.29023M3.36216 3.35752C2.28112 4.09085 1.54723 5.10969 1.21055 5.64264C1.14214 5.75094 1.10794 5.80508 1.08887 5.88824C1.07455 5.9507 1.07454 6.04922 1.08886 6.11168C1.10791 6.19484 1.14197 6.24876 1.21007 6.35659C1.77277 7.24758 3.44771 9.5 6.00021 9.5C7.02941 9.5 7.91594 9.1338 8.64441 8.6383M1.50021 1.5L10.5002 10.5M4.93955 4.93934C4.6681 5.21079 4.50021 5.58579 4.50021 6C4.50021 6.82843 5.17178 7.5 6.00021 7.5C6.41442 7.5 6.78942 7.33211 7.06087 7.06066" stroke="white" stroke-linecap="round" stroke-linejoin="round"/>
</svg>
